<svg xmlns="http://www.w3.org/2000/svg" viewBox="0 0 513 497.33"><defs><style>.cls-1{fill:#613395;stroke:#613395;stroke-miterlimit:10;}</style></defs><g id="Layer_2" data-name="Layer 2"><g id="Capa_1" data-name="Capa 1"><path class="cls-1" d="M474.55,166.48a8,8,0,0,0-5.13,10.09,232.84,232.84,0,1,1-50.49-85.74A8,8,0,1,0,430.66,80a247.27,247.27,0,1,0,54,91.65A8,8,0,0,0,474.55,166.48Z"/><path class="cls-1" d="M505.47,75.93a24,24,0,0,0-34,0l-7.16,7.16A8,8,0,1,0,475.66,94.4l7.17-7.16a8,8,0,1,1,11.32,11.33L218.3,374.42a8,8,0,0,1-11.32,0L99.25,266.68a8,8,0,1,1,11.32-11.32L207,351.77a8,8,0,0,0,11.31,0L453.15,116.92a8,8,0,1,0-11.31-11.32L212.64,334.8,121.89,244a24,24,0,0,0-34,34L195.66,385.72a24,24,0,0,0,34,0L505.47,109.88a24,24,0,0,0,0-33.95Z"/></g></g></svg>